ffmpeg started on 2025-05-26 at 19:02:18
Report written to "D:\Convert\FFMetrics\reports\psnr_report-6.txt"
Log level: 32
Command line:
ffmpeg -hide_banner -nostdin -i "G:\\\xc0\xed\xe8\xec\xe5\\\xce\xed\xe3\xee\xe8\xed\xe3\xe8\\!_34_\xc2\xe5\xf1\xed\xe0_2024\\DreamCast\\\xcc\xee\xe9 \xf1\xee\xf1\xe5\xe4-\xb8\xea\xe0\xe9\\[DC] Tonari no Youkai-san - 02_Telegram_HEVC.mkv" -i "G:\\\xc0\xed\xe8\xec\xe5\\\xce\xed\xe3\xee\xe8\xed\xe3\xe8\\!_34_\xc2\xe5\xf1\xed\xe0_2024\\DreamCast\\\xcc\xee\xe9 \xf1\xee\xf1\xe5\xe4-\xb8\xea\xe0\xe9\\[DC] Tonari no Youkai-san - 02_Telegram.mp4" -lavfi "[0:v]settb=AVTB,setpts=PTS-STARTPTS,format=pix_fmts=yuv420p10,fps=24000/1001,scale=1920:1080:flags=bicubic[main];[1:v]settb=AVTB,setpts=PTS-STARTPTS,format=pix_fmts=yuv420p,fps=24000/1001,scale=1920:1080:flags=bicubic[ref];[main][ref]psnr=eof_action=endall:stats_file='D\\:/Convert/FFMetrics/logs/psnr_logfile-6.txt'" -f null -
Input #0, matroska,webm, from 'G:\Аниме\Онгоинги\!_34_Весна_2024\DreamCast\Мой сосед-ёкай\[DC] Tonari no Youkai-san - 02_Telegram_HEVC.mkv':
  Metadata:
    COMPATIBLE_BRANDS: isomiso2avc1mp41
    MAJOR_BRAND     : isom
    MINOR_VERSION   : 512
    ENCODER         : Lavf61.7.100
  Duration: 00:23:46.73, start: -0.021000, bitrate: 1111 kb/s
  Stream #0:0: Video: hevc (Main 10), yuv420p10le(tv, bt709, progressive), 1920x1080 [SAR 1:1 DAR 16:9], 23.98 fps, 23.98 tbr, 1k tbn (default)
      Metadata:
        HANDLER_NAME    : VideoHandler
        VENDOR_ID       : [0][0][0][0]
        ENCODER         : Lavc61.19.100 libx265
        BPS             : 914439
        DURATION        : 00:23:46.549708333
        NUMBER_OF_FRAMES: 34203
        NUMBER_OF_BYTES : 163061593
        _STATISTICS_WRITING_APP: mkvpropedit v66.0.0 ('Josie') 64-bit
        _STATISTICS_WRITING_DATE_UTC: 2025-05-26 12:44:59
        _STATISTICS_TAGS: BPS DURATION NUMBER_OF_FRAMES NUMBER_OF_BYTES
  Stream #0:1: Audio: aac (LC), 48000 Hz, stereo, fltp (default)
      Metadata:
        HANDLER_NAME    : SoundHandler
        VENDOR_ID       : [0][0][0][0]
        ENCODER         : Lavc61.19.100 aac
        BPS             : 193196
        DURATION        : 00:23:46.730000000
        NUMBER_OF_FRAMES: 66879
        NUMBER_OF_BYTES : 34454973
        _STATISTICS_WRITING_APP: mkvpropedit v66.0.0 ('Josie') 64-bit
        _STATISTICS_WRITING_DATE_UTC: 2025-05-26 12:44:59
        _STATISTICS_TAGS: BPS DURATION NUMBER_OF_FRAMES NUMBER_OF_BYTES
Input #1, mov,mp4,m4a,3gp,3g2,mj2, from 'G:\Аниме\Онгоинги\!_34_Весна_2024\DreamCast\Мой сосед-ёкай\[DC] Tonari no Youkai-san - 02_Telegram.mp4':
  Metadata:
    major_brand     : isom
    minor_version   : 512
    compatible_brands: isomiso2avc1mp41
    encoder         : Lavf60.16.100
  Duration: 00:23:46.68, start: 0.000000, bitrate: 3669 kb/s
  Stream #1:0[0x1](und): Video: h264 (High) (avc1 / 0x31637661), yuv420p(tv, bt709, progressive), 1920x1080 [SAR 1:1 DAR 16:9], 3521 kb/s, 23.98 fps, 23.98 tbr, 24k tbn (default)
      Metadata:
        handler_name    : VideoHandler
        vendor_id       : [0][0][0][0]
        encoder         : Lavc60.31.102 h264_qsv
  Stream #1:1[0x2](und): Audio: aac (HE-AACv2) (mp4a / 0x6134706D), 48000 Hz, stereo, fltp, 144 kb/s (default)
      Metadata:
        handler_name    : SoundHandler
        vendor_id       : [0][0][0][0]
Stream mapping:
  Stream #0:0 (hevc) -> settb:default
  Stream #1:0 (h264) -> settb:default
  psnr:default -> Stream #0:0 (wrapped_avframe)
  Stream #0:1 -> #0:1 (aac (native) -> pcm_s16le (native))
Output #0, null, to 'pipe:':
  Metadata:
    COMPATIBLE_BRANDS: isomiso2avc1mp41
    MAJOR_BRAND     : isom
    MINOR_VERSION   : 512
    encoder         : Lavf61.7.100
  Stream #0:0: Video: wrapped_avframe, yuv420p10le(tv, bt709, progressive), 1920x1080 [SAR 1:1 DAR 16:9], q=2-31, 200 kb/s, 23.98 fps, 23.98 tbn
      Metadata:
        encoder         : Lavc61.19.100 wrapped_avframe
  Stream #0:1: Audio: pcm_s16le, 48000 Hz, stereo, s16, 1536 kb/s (default)
      Metadata:
        HANDLER_NAME    : SoundHandler
        VENDOR_ID       : [0][0][0][0]
        _STATISTICS_TAGS: BPS DURATION NUMBER_OF_FRAMES NUMBER_OF_BYTES
        BPS             : 193196
        DURATION        : 00:23:46.730000000
        NUMBER_OF_FRAMES: 66879
        NUMBER_OF_BYTES : 34454973
        _STATISTICS_WRITING_APP: mkvpropedit v66.0.0 ('Josie') 64-bit
        _STATISTICS_WRITING_DATE_UTC: 2025-05-26 12:44:59
        encoder         : Lavc61.19.100 pcm_s16le
frame=  182 fps=0.0 q=-0.0 size=N/A time=00:00:07.59 bitrate=N/A speed=14.7x    frame=  451 fps=433 q=-0.0 size=N/A time=00:00:18.81 bitrate=N/A speed=  18x    frame=  661 fps=426 q=-0.0 size=N/A time=00:00:27.56 bitrate=N/A speed=17.8x    frame=  815 fps=394 q=-0.0 size=N/A time=00:00:33.99 bitrate=N/A speed=16.4x    frame= 1021 fps=396 q=-0.0 size=N/A time=00:00:42.58 bitrate=N/A speed=16.5x    frame= 1264 fps=408 q=-0.0 size=N/A time=00:00:52.71 bitrate=N/A speed=  17x    frame= 1520 fps=421 q=-0.0 size=N/A time=00:01:03.39 bitrate=N/A speed=17.6x    frame= 1722 fps=417 q=-0.0 size=N/A time=00:01:11.82 bitrate=N/A speed=17.4x    frame= 1936 fps=416 q=-0.0 size=N/A time=00:01:20.74 bitrate=N/A speed=17.4x    frame= 2145 fps=416 q=-0.0 size=N/A time=00:01:29.46 bitrate=N/A speed=17.3x    frame= 2365 fps=417 q=-0.0 size=N/A time=00:01:38.64 bitrate=N/A speed=17.4x    frame= 2567 fps=415 q=-0.0 size=N/A time=00:01:47.06 bitrate=N/A speed=17.3x    frame= 2770 fps=413 q=-0.0 size=N/A time=00:01:55.53 bitrate=N/A speed=17.2x    frame= 2978 fps=412 q=-0.0 size=N/A time=00:02:04.20 bitrate=N/A speed=17.2x    frame= 3175 fps=411 q=-0.0 size=N/A time=00:02:12.42 bitrate=N/A speed=17.1x    frame= 3395 fps=411 q=-0.0 size=N/A time=00:02:21.59 bitrate=N/A speed=17.2x    frame= 3628 fps=413 q=-0.0 size=N/A time=00:02:31.31 bitrate=N/A speed=17.2x    frame= 3882 fps=418 q=-0.0 size=N/A time=00:02:41.91 bitrate=N/A speed=17.4x    frame= 4157 fps=424 q=-0.0 size=N/A time=00:02:53.38 bitrate=N/A speed=17.7x    frame= 4426 fps=429 q=-0.0 size=N/A time=00:03:04.60 bitrate=N/A speed=17.9x    frame= 4629 fps=427 q=-0.0 size=N/A time=00:03:13.06 bitrate=N/A speed=17.8x    frame= 4849 fps=427 q=-0.0 size=N/A time=00:03:22.24 bitrate=N/A speed=17.8x    frame= 5111 fps=431 q=-0.0 size=N/A time=00:03:33.17 bitrate=N/A speed=  18x    frame= 5366 fps=434 q=-0.0 size=N/A time=00:03:43.80 bitrate=N/A speed=18.1x    frame= 5645 fps=438 q=-0.0 size=N/A time=00:03:55.44 bitrate=N/A speed=18.2x    frame= 5889 fps=439 q=-0.0 size=N/A time=00:04:05.62 bitrate=N/A speed=18.3x    frame= 6132 fps=440 q=-0.0 size=N/A time=00:04:15.75 bitrate=N/A speed=18.4x    frame= 6375 fps=441 q=-0.0 size=N/A time=00:04:25.89 bitrate=N/A speed=18.4x    frame= 6641 fps=444 q=-0.0 size=N/A time=00:04:36.98 bitrate=N/A speed=18.5x    frame= 6861 fps=443 q=-0.0 size=N/A time=00:04:46.16 bitrate=N/A speed=18.5x    frame= 7080 fps=443 q=-0.0 size=N/A time=00:04:55.29 bitrate=N/A speed=18.5x    frame= 7350 fps=445 q=-0.0 size=N/A time=00:05:06.55 bitrate=N/A speed=18.6x    frame= 7614 fps=447 q=-0.0 size=N/A time=00:05:17.56 bitrate=N/A speed=18.6x    frame= 7875 fps=449 q=-0.0 size=N/A time=00:05:28.45 bitrate=N/A speed=18.7x    frame= 8166 fps=452 q=-0.0 size=N/A time=00:05:40.59 bitrate=N/A speed=18.9x    frame= 8445 fps=454 q=-0.0 size=N/A time=00:05:52.22 bitrate=N/A speed=  19x    frame= 8691 fps=455 q=-0.0 size=N/A time=00:06:02.48 bitrate=N/A speed=  19x    frame= 8927 fps=455 q=-0.0 size=N/A time=00:06:12.33 bitrate=N/A speed=  19x    frame= 9160 fps=455 q=-0.0 size=N/A time=00:06:22.04 bitrate=N/A speed=  19x    frame= 9401 fps=455 q=-0.0 size=N/A time=00:06:32.10 bitrate=N/A speed=  19x    frame= 9663 fps=457 q=-0.0 size=N/A time=00:06:43.02 bitrate=N/A speed=  19x    frame= 9915 fps=457 q=-0.0 size=N/A time=00:06:53.53 bitrate=N/A speed=19.1x    frame=10142 fps=457 q=-0.0 size=N/A time=00:07:03.00 bitrate=N/A speed=19.1x    frame=10345 fps=456 q=-0.0 size=N/A time=00:07:11.47 bitrate=N/A speed=  19x    frame=10594 fps=456 q=-0.0 size=N/A time=00:07:21.85 bitrate=N/A speed=  19x    frame=10823 fps=456 q=-0.0 size=N/A time=00:07:31.40 bitrate=N/A speed=  19x    frame=11088 fps=457 q=-0.0 size=N/A time=00:07:42.46 bitrate=N/A speed=19.1x    frame=11346 fps=458 q=-0.0 size=N/A time=00:07:53.22 bitrate=N/A speed=19.1x    frame=11604 fps=459 q=-0.0 size=N/A time=00:08:03.98 bitrate=N/A speed=19.1x    frame=11861 fps=460 q=-0.0 size=N/A time=00:08:14.70 bitrate=N/A speed=19.2x    frame=12124 fps=461 q=-0.0 size=N/A time=00:08:25.67 bitrate=N/A speed=19.2x    frame=12383 fps=461 q=-0.0 size=N/A time=00:08:36.47 bitrate=N/A speed=19.2x    frame=12607 fps=461 q=-0.0 size=N/A time=00:08:45.81 bitrate=N/A speed=19.2x    frame=12838 fps=461 q=-0.0 size=N/A time=00:08:55.45 bitrate=N/A speed=19.2x    frame=13069 fps=461 q=-0.0 size=N/A time=00:09:05.08 bitrate=N/A speed=19.2x    frame=13302 fps=460 q=-0.0 size=N/A time=00:09:14.80 bitrate=N/A speed=19.2x    frame=13547 fps=461 q=-0.0 size=N/A time=00:09:25.02 bitrate=N/A speed=19.2x    frame=13764 fps=460 q=-0.0 size=N/A time=00:09:34.07 bitrate=N/A speed=19.2x    frame=13993 fps=460 q=-0.0 size=N/A time=00:09:43.62 bitrate=N/A speed=19.2x    frame=14203 fps=459 q=-0.0 size=N/A time=00:09:52.38 bitrate=N/A speed=19.1x    frame=14412 fps=458 q=-0.0 size=N/A time=00:10:01.10 bitrate=N/A speed=19.1x    frame=14641 fps=458 q=-0.0 size=N/A time=00:10:10.65 bitrate=N/A speed=19.1x    frame=14911 fps=459 q=-0.0 size=N/A time=00:10:21.91 bitrate=N/A speed=19.1x    frame=15159 fps=459 q=-0.0 size=N/A time=00:10:32.25 bitrate=N/A speed=19.1x    frame=15447 fps=461 q=-0.0 size=N/A time=00:10:44.26 bitrate=N/A speed=19.2x    frame=15692 fps=461 q=-0.0 size=N/A time=00:10:54.48 bitrate=N/A speed=19.2x    frame=15937 fps=461 q=-0.0 size=N/A time=00:11:04.70 bitrate=N/A speed=19.2x    frame=16200 fps=462 q=-0.0 size=N/A time=00:11:15.67 bitrate=N/A speed=19.3x    frame=16457 fps=462 q=-0.0 size=N/A time=00:11:26.39 bitrate=N/A speed=19.3x    frame=16687 fps=462 q=-0.0 size=N/A time=00:11:35.98 bitrate=N/A speed=19.3x    frame=16902 fps=461 q=-0.0 size=N/A time=00:11:44.95 bitrate=N/A speed=19.2x    frame=17147 fps=462 q=-0.0 size=N/A time=00:11:55.17 bitrate=N/A speed=19.3x    frame=17374 fps=461 q=-0.0 size=N/A time=00:12:04.64 bitrate=N/A speed=19.2x    frame=17608 fps=461 q=-0.0 size=N/A time=00:12:14.40 bitrate=N/A speed=19.2x    frame=17856 fps=462 q=-0.0 size=N/A time=00:12:24.74 bitrate=N/A speed=19.2x    frame=18099 fps=462 q=-0.0 size=N/A time=00:12:34.87 bitrate=N/A speed=19.3x    frame=18338 fps=462 q=-0.0 size=N/A time=00:12:44.84 bitrate=N/A speed=19.3x    frame=18510 fps=460 q=-0.0 size=N/A time=00:12:52.02 bitrate=N/A speed=19.2x    frame=18729 fps=460 q=-0.0 size=N/A time=00:13:01.15 bitrate=N/A speed=19.2x    frame=18954 fps=459 q=-0.0 size=N/A time=00:13:10.53 bitrate=N/A speed=19.2x    frame=19188 fps=459 q=-0.0 size=N/A time=00:13:20.29 bitrate=N/A speed=19.2x    frame=19435 fps=459 q=-0.0 size=N/A time=00:13:30.60 bitrate=N/A speed=19.2x    frame=19692 fps=460 q=-0.0 size=N/A time=00:13:41.32 bitrate=N/A speed=19.2x    frame=19936 fps=460 q=-0.0 size=N/A time=00:13:51.49 bitrate=N/A speed=19.2x    frame=20174 fps=460 q=-0.0 size=N/A time=00:14:01.42 bitrate=N/A speed=19.2x    frame=20445 fps=461 q=-0.0 size=N/A time=00:14:12.72 bitrate=N/A speed=19.2x    frame=20693 fps=461 q=-0.0 size=N/A time=00:14:23.07 bitrate=N/A speed=19.2x    frame=20944 fps=461 q=-0.0 size=N/A time=00:14:33.53 bitrate=N/A speed=19.2x    frame=21198 fps=462 q=-0.0 size=N/A time=00:14:44.13 bitrate=N/A speed=19.3x    frame=21422 fps=461 q=-0.0 size=N/A time=00:14:53.47 bitrate=N/A speed=19.2x    frame=21672 fps=462 q=-0.0 size=N/A time=00:15:03.90 bitrate=N/A speed=19.3x    frame=21943 fps=462 q=-0.0 size=N/A time=00:15:15.20 bitrate=N/A speed=19.3x    frame=22181 fps=462 q=-0.0 size=N/A time=00:15:25.13 bitrate=N/A speed=19.3x    frame=22438 fps=463 q=-0.0 size=N/A time=00:15:35.85 bitrate=N/A speed=19.3x    frame=22702 fps=463 q=-0.0 size=N/A time=00:15:46.86 bitrate=N/A speed=19.3x    frame=22968 fps=464 q=-0.0 size=N/A time=00:15:57.95 bitrate=N/A speed=19.3x    frame=23222 fps=464 q=-0.0 size=N/A time=00:16:08.55 bitrate=N/A speed=19.4x    frame=23468 fps=464 q=-0.0 size=N/A time=00:16:18.81 bitrate=N/A speed=19.4x    frame=23721 fps=465 q=-0.0 size=N/A time=00:16:29.36 bitrate=N/A speed=19.4x    frame=23985 fps=465 q=-0.0 size=N/A time=00:16:40.37 bitrate=N/A speed=19.4x    frame=24256 fps=466 q=-0.0 size=N/A time=00:16:51.67 bitrate=N/A speed=19.4x    frame=24527 fps=466 q=-0.0 size=N/A time=00:17:02.98 bitrate=N/A speed=19.4x    frame=24783 fps=466 q=-0.0 size=N/A time=00:17:13.65 bitrate=N/A speed=19.5x    frame=25009 fps=466 q=-0.0 size=N/A time=00:17:23.08 bitrate=N/A speed=19.4x    frame=25206 fps=465 q=-0.0 size=N/A time=00:17:31.30 bitrate=N/A speed=19.4x    frame=25394 fps=464 q=-0.0 size=N/A time=00:17:39.14 bitrate=N/A speed=19.4x    frame=25603 fps=464 q=-0.0 size=N/A time=00:17:47.85 bitrate=N/A speed=19.3x    frame=25834 fps=464 q=-0.0 size=N/A time=00:17:57.49 bitrate=N/A speed=19.3x    frame=26047 fps=463 q=-0.0 size=N/A time=00:18:06.37 bitrate=N/A speed=19.3x    frame=26284 fps=463 q=-0.0 size=N/A time=00:18:16.26 bitrate=N/A speed=19.3x    frame=26534 fps=463 q=-0.0 size=N/A time=00:18:26.68 bitrate=N/A speed=19.3x    frame=26808 fps=464 q=-0.0 size=N/A time=00:18:38.11 bitrate=N/A speed=19.4x    frame=27029 fps=464 q=-0.0 size=N/A time=00:18:47.33 bitrate=N/A speed=19.3x    frame=27231 fps=463 q=-0.0 size=N/A time=00:18:55.75 bitrate=N/A speed=19.3x    frame=27446 fps=463 q=-0.0 size=N/A time=00:19:04.72 bitrate=N/A speed=19.3x    frame=27666 fps=462 q=-0.0 size=N/A time=00:19:13.90 bitrate=N/A speed=19.3x    frame=27882 fps=462 q=-0.0 size=N/A time=00:19:22.91 bitrate=N/A speed=19.3x    frame=28096 fps=462 q=-0.0 size=N/A time=00:19:31.83 bitrate=N/A speed=19.3x    frame=28290 fps=461 q=-0.0 size=N/A time=00:19:39.92 bitrate=N/A speed=19.2x    frame=28518 fps=461 q=-0.0 size=N/A time=00:19:49.43 bitrate=N/A speed=19.2x    frame=28774 fps=461 q=-0.0 size=N/A time=00:20:00.11 bitrate=N/A speed=19.2x    frame=29028 fps=461 q=-0.0 size=N/A time=00:20:10.70 bitrate=N/A speed=19.2x    frame=29291 fps=462 q=-0.0 size=N/A time=00:20:21.67 bitrate=N/A speed=19.3x    frame=29562 fps=462 q=-0.0 size=N/A time=00:20:32.98 bitrate=N/A speed=19.3x    frame=29775 fps=462 q=-0.0 size=N/A time=00:20:41.86 bitrate=N/A speed=19.3x    frame=30032 fps=462 q=-0.0 size=N/A time=00:20:52.58 bitrate=N/A speed=19.3x    frame=30278 fps=462 q=-0.0 size=N/A time=00:21:02.84 bitrate=N/A speed=19.3x    frame=30522 fps=462 q=-0.0 size=N/A time=00:21:13.02 bitrate=N/A speed=19.3x    frame=30779 fps=463 q=-0.0 size=N/A time=00:21:23.74 bitrate=N/A speed=19.3x    frame=31038 fps=463 q=-0.0 size=N/A time=00:21:34.54 bitrate=N/A speed=19.3x    frame=31322 fps=463 q=-0.0 size=N/A time=00:21:46.38 bitrate=N/A speed=19.3x    frame=31598 fps=464 q=-0.0 size=N/A time=00:21:57.89 bitrate=N/A speed=19.4x    frame=31879 fps=465 q=-0.0 size=N/A time=00:22:09.61 bitrate=N/A speed=19.4x    frame=32133 fps=465 q=-0.0 size=N/A time=00:22:20.21 bitrate=N/A speed=19.4x    frame=32420 fps=465 q=-0.0 size=N/A time=00:22:32.18 bitrate=N/A speed=19.4x    frame=32708 fps=466 q=-0.0 size=N/A time=00:22:44.19 bitrate=N/A speed=19.4x    frame=32992 fps=467 q=-0.0 size=N/A time=00:22:56.04 bitrate=N/A speed=19.5x    frame=33274 fps=467 q=-0.0 size=N/A time=00:23:07.80 bitrate=N/A speed=19.5x    frame=33542 fps=468 q=-0.0 size=N/A time=00:23:18.98 bitrate=N/A speed=19.5x    frame=33764 fps=467 q=-0.0 size=N/A time=00:23:28.24 bitrate=N/A speed=19.5x    frame=34002 fps=467 q=-0.0 size=N/A time=00:23:38.16 bitrate=N/A speed=19.5x    [Parsed_psnr_10 @ 000001e71a1e1500] PSNR y:48.556220 u:50.753394 v:51.117911 average:49.213457 min:41.854035 max:inf
[out#0/null @ 000001e7126f4e80] video:14697KiB audio:267516KiB subtitle:0KiB other streams:0KiB global headers:0KiB muxing overhead: unknown
frame=34203 fps=467 q=-0.0 Lsize=N/A time=00:23:46.55 bitrate=N/A speed=19.5x    
